HIERARCHY
ROOT Root
{
  OFFSET 0.0 0.0 0.0
  CHANNELS 6 Xposition Yposition Zposition Zrotation Yrotation Xrotation
  JOINT Hips
  {
    OFFSET 0.0 100.0 0.0
    CHANNELS 6 Xposition Yposition Zposition Zrotation Yrotation Xrotation
    JOINT Spine1
    {
      OFFSET -0.013727 5.003763 -0.053727
      CHANNELS 3 Zrotation Yrotation Xrotation
      JOINT Spine2
      {
        OFFSET -0.0 7.125301 -0.029825
        CHANNELS 3 Zrotation Yrotation Xrotation
        JOINT Chest
        {
          OFFSET -1e-06 7.550063 -0.815971
          CHANNELS 3 Zrotation Yrotation Xrotation
          JOINT Neck1
          {
            OFFSET -0.181677 26.311295 -0.553348
            CHANNELS 3 Zrotation Yrotation Xrotation
            JOINT Neck2
            {
              OFFSET -3e-06 7.709397 2.302585
              CHANNELS 3 Zrotation Yrotation Xrotation
              JOINT Head
              {
                OFFSET -5e-06 6.128916 1.953709
                CHANNELS 3 Zrotation Yrotation Xrotation
                JOINT HeadEnd
                {
                  OFFSET 0.003598 16.065403 -1.835379
                  CHANNELS 3 Zrotation Yrotation Xrotation
                }
                JOINT Jaw
                {
                  OFFSET 0.002637 0.475592 3.094941
                  CHANNELS 3 Zrotation Yrotation Xrotation
                }
                JOINT LeftEye
                {
                  OFFSET 3.206381 5.380205 7.586883
                  CHANNELS 3 Zrotation Yrotation Xrotation
                }
                JOINT RightEye
                {
                  OFFSET -3.22244 5.361869 7.558234
                  CHANNELS 3 Zrotation Yrotation Xrotation
                }
              }
            }
          }
          JOINT LeftShoulder
          {
            OFFSET 1.621652 23.237164 5.113413
            CHANNELS 3 Zrotation Yrotation Xrotation
            JOINT LeftArm
            {
              OFFSET 14.919846 2e-06 -5.502326
              CHANNELS 3 Zrotation Yrotation Xrotation
              JOINT LeftForeArm
              {
                OFFSET 28.739307 0.0 -0.002588
                CHANNELS 3 Zrotation Yrotation Xrotation
                JOINT LeftHand
                {
                  OFFSET 27.093981 -1e-06 0.002609
                  CHANNELS 3 Zrotation Yrotation Xrotation
                  JOINT LeftHandThumb1
                  {
                    OFFSET 2.276482 -1.392045 3.191413
                    CHANNELS 3 Zrotation Yrotation Xrotation
                    JOINT LeftHandThumb2
                    {
                      OFFSET 4.012836 -1.828127 1.641654
                      CHANNELS 3 Zrotation Yrotation Xrotation
                      JOINT LeftHandThumb3
                      {
                        OFFSET 2.798515 0.0 -3e-06
                        CHANNELS 3 Zrotation Yrotation Xrotation
                        JOINT LeftHandThumbEnd
                        {
                          OFFSET 3.180793 -4e-06 4e-06
                          CHANNELS 3 Zrotation Yrotation Xrotation
                        }
                      }
                    }
                  }
                  JOINT LeftHandIndex1
                  {
                    OFFSET 3.247555 -0.531998 2.296169
                    CHANNELS 3 Zrotation Yrotation Xrotation
                    JOINT LeftHandIndex2
                    {
                      OFFSET 6.364578 0.01206 0.1786
                      CHANNELS 3 Zrotation Yrotation Xrotation
                      JOINT LeftHandIndex3
                      {
                        OFFSET 3.662364 0.0 0.0
                        CHANNELS 3 Zrotation Yrotation Xrotation
                        JOINT LeftHandIndex4
                        {
                          OFFSET 2.329242 4e-06 4e-06
                          CHANNELS 3 Zrotation Yrotation Xrotation
                          JOINT LeftHandIndexEnd
                          {
                            OFFSET 2.759615 -0.180537 -0.113024
                            CHANNELS 3 Zrotation Yrotation Xrotation
                          }
                        }
                      }
                    }
                  }
                  JOINT LeftHandMiddle1
                  {
                    OFFSET 3.163495 0.240981 1.000332
                    CHANNELS 3 Zrotation Yrotation Xrotation
                    JOINT LeftHandMiddle2
                    {
                      OFFSET 6.19078 -0.259278 -1.002548
                      CHANNELS 3 Zrotation Yrotation Xrotation
                      JOINT LeftHandMiddle3
                      {
                        OFFSET 4.35652 -4e-06 -1e-06
                        CHANNELS 3 Zrotation Yrotation Xrotation
                        JOINT LeftHandMiddle4
                        {
                          OFFSET 2.996877 -8e-06 0.0
                          CHANNELS 3 Zrotation Yrotation Xrotation
                          JOINT LeftHandMiddleEnd
                          {
                            OFFSET 2.304287 -0.294569 -0.031741
                            CHANNELS 3 Zrotation Yrotation Xrotation
                          }
                        }
                      }
                    }
                  }
                  JOINT LeftHandRing1
                  {
                    OFFSET 2.882643 -0.053652 -0.322543
                    CHANNELS 3 Zrotation Yrotation Xrotation
                    JOINT LeftHandRing2
                    {
                      OFFSET 5.854541 -0.486202 -1.373841
                      CHANNELS 3 Zrotation Yrotation Xrotation
                      JOINT LeftHandRing3
                      {
                        OFFSET 4.350578 0.0 3e-06
                        CHANNELS 3 Zrotation Yrotation Xrotation
                        JOINT LeftHandRing4
                        {
                          OFFSET 2.651321 7e-06 2e-06
                          CHANNELS 3 Zrotation Yrotation Xrotation
                          JOINT LeftHandRingEnd
                          {
                            OFFSET 1.936105 0.077687 -7.1e-05
                            CHANNELS 3 Zrotation Yrotation Xrotation
                          }
                        }
                      }
                    }
                  }
                  JOINT LeftHandPinky1
                  {
                    OFFSET 2.8655 -0.310005 -1.600378
                    CHANNELS 3 Zrotation Yrotation Xrotation
                    JOINT LeftHandPinky2
                    {
                      OFFSET 5.087849 -1.331141 -1.77123
                      CHANNELS 3 Zrotation Yrotation Xrotation
                      JOINT LeftHandPinky3
                      {
                        OFFSET 3.070974 4e-06 0.0
                        CHANNELS 3 Zrotation Yrotation Xrotation
                        JOINT LeftHandPinky4
                        {
                          OFFSET 1.549672 0.0 1e-06
                          CHANNELS 3 Zrotation Yrotation Xrotation
                          JOINT LeftHandPinkyEnd
                          {
                            OFFSET 1.944893 -0.157802 0.057219
                            CHANNELS 3 Zrotation Yrotation Xrotation
                          }
                        }
                      }
                    }
                  }
                }
              }
            }
          }
          JOINT RightShoulder
          {
            OFFSET -1.380118 23.180309 5.214158
            CHANNELS 3 Zrotation Yrotation Xrotation
            JOINT RightArm
            {
              OFFSET -15.037196 1.2e-05 -5.545604
              CHANNELS 3 Zrotation Yrotation Xrotation
              JOINT RightForeArm
              {
                OFFSET -28.736639 2e-06 -0.002597
                CHANNELS 3 Zrotation Yrotation Xrotation
                JOINT RightHand
                {
                  OFFSET -27.133619 -0.0 0.002613
                  CHANNELS 3 Zrotation Yrotation Xrotation
                  JOINT RightHandThumb1
                  {
                    OFFSET -2.274032 -1.383988 3.163127
                    CHANNELS 3 Zrotation Yrotation Xrotation
                    JOINT RightHandThumb2
                    {
                      OFFSET -4.011429 -1.827466 1.640914
                      CHANNELS 3 Zrotation Yrotation Xrotation
                      JOINT RightHandThumb3
                      {
                        OFFSET -2.794935 -4e-06 -3e-06
                        CHANNELS 3 Zrotation Yrotation Xrotation
                        JOINT RightHandThumbEnd
                        {
                          OFFSET -3.183852 4e-06 1e-06
                          CHANNELS 3 Zrotation Yrotation Xrotation
                        }
                      }
                    }
                  }
                  JOINT RightHandIndex1
                  {
                    OFFSET -3.253266 -0.520057 2.282866
                    CHANNELS 3 Zrotation Yrotation Xrotation
                    JOINT RightHandIndex2
                    {
                      OFFSET -6.341917 0.012471 0.178266
                      CHANNELS 3 Zrotation Yrotation Xrotation
                      JOINT RightHandIndex3
                      {
                        OFFSET -3.654871 -8e-06 -0.0
                        CHANNELS 3 Zrotation Yrotation Xrotation
                        JOINT RightHandIndex4
                        {
                          OFFSET -2.327586 0.0 1e-06
                          CHANNELS 3 Zrotation Yrotation Xrotation
                          JOINT RightHandIndexEnd
                          {
                            OFFSET -2.76179 -0.180656 -0.113078
                            CHANNELS 3 Zrotation Yrotation Xrotation
                          }
                        }
                      }
                    }
                  }
                  JOINT RightHandMiddle1
                  {
                    OFFSET -3.168106 0.246593 1.00103
                    CHANNELS 3 Zrotation Yrotation Xrotation
                    JOINT RightHandMiddle2
                    {
                      OFFSET -6.180828 -0.258836 -1.000895
                      CHANNELS 3 Zrotation Yrotation Xrotation
                      JOINT RightHandMiddle3
                      {
                        OFFSET -4.348901 0.0 -0.0
                        CHANNELS 3 Zrotation Yrotation Xrotation
                        JOINT RightHandMiddle4
                        {
                          OFFSET -3.00024 -4e-06 -2e-06
                          CHANNELS 3 Zrotation Yrotation Xrotation
                          JOINT RightHandMiddleEnd
                          {
                            OFFSET -2.30252 -0.29437 -0.031706
                            CHANNELS 3 Zrotation Yrotation Xrotation
                          }
                        }
                      }
                    }
                  }
                  JOINT RightHandRing1
                  {
                    OFFSET -2.88569 -0.067952 -0.308858
                    CHANNELS 3 Zrotation Yrotation Xrotation
                    JOINT RightHandRing2
                    {
                      OFFSET -5.854198 -0.48613 -1.373731
                      CHANNELS 3 Zrotation Yrotation Xrotation
                      JOINT RightHandRing3
                      {
                        OFFSET -4.33881 -4e-06 -0.0
                        CHANNELS 3 Zrotation Yrotation Xrotation
                        JOINT RightHandRing4
                        {
                          OFFSET -2.654903 -4e-06 4e-06
                          CHANNELS 3 Zrotation Yrotation Xrotation
                          JOINT RightHandRingEnd
                          {
                            OFFSET -1.933568 0.077527 -5.2e-05
                            CHANNELS 3 Zrotation Yrotation Xrotation
                          }
                        }
                      }
                    }
                  }
                  JOINT RightHandPinky1
                  {
                    OFFSET -2.866425 -0.342796 -1.584145
                    CHANNELS 3 Zrotation Yrotation Xrotation
                    JOINT RightHandPinky2
                    {
                      OFFSET -5.091371 -1.332055 -1.772385
                      CHANNELS 3 Zrotation Yrotation Xrotation
                      JOINT RightHandPinky3
                      {
                        OFFSET -3.062664 -4e-06 1e-06
                        CHANNELS 3 Zrotation Yrotation Xrotation
                        JOINT RightHandPinky4
                        {
                          OFFSET -1.546529 4e-06 -2e-06
                          CHANNELS 3 Zrotation Yrotation Xrotation
                          JOINT RightHandPinkyEnd
                          {
                            OFFSET -1.945119 -0.157718 0.057211
                            CHANNELS 3 Zrotation Yrotation Xrotation
                          }
                        }
                      }
                    }
                  }
                }
              }
            }
          }
        }
      }
    }
    JOINT LeftLeg
    {
      OFFSET 10.043214 -8.434526 2.595655
      CHANNELS 3 Zrotation Yrotation Xrotation
      JOINT LeftShin
      {
        OFFSET -1e-06 -43.221752 -0.802913
        CHANNELS 3 Zrotation Yrotation Xrotation
        JOINT LeftFoot
        {
          OFFSET 1e-06 -42.155094 -3.481523
          CHANNELS 3 Zrotation Yrotation Xrotation
          JOINT LeftToeBase
          {
            OFFSET 0.0 -5.059472 13.231529
            CHANNELS 3 Zrotation Yrotation Xrotation
            JOINT LeftToeEnd
            {
              OFFSET -0.009607 -1.647619 6.513017
              CHANNELS 3 Zrotation Yrotation Xrotation
            }
          }
        }
      }
    }
    JOINT RightLeg
    {
      OFFSET -10.047278 -8.29526 2.620317
      CHANNELS 3 Zrotation Yrotation Xrotation
      JOINT RightShin
      {
        OFFSET 1e-06 -43.362206 -0.805556
        CHANNELS 3 Zrotation Yrotation Xrotation
        JOINT RightFoot
        {
          OFFSET 2e-06 -42.117393 -3.478398
          CHANNELS 3 Zrotation Yrotation Xrotation
          JOINT RightToeBase
          {
            OFFSET -0.0 -5.079609 13.284196
            CHANNELS 3 Zrotation Yrotation Xrotation
            JOINT RightToeEnd
            {
              OFFSET 0.009532 -1.634378 6.460591
              CHANNELS 3 Zrotation Yrotation Xrotation
            }
          }
        }
      }
    }
  }
}
MOTION
Frames: 4
Frame Time: 0.03333333333333333
0.0 0.0 0.0 0.0 -0.0 0.0 3.926968 95.713074 86.327293 -4.78372 2.498852 -22.455585 -2.520662 0.909688 -1.036023 -0.97414 0.066695 -5.642852 -3.871373 -1.131438 8.781469 11.00417 -7.402019 24.833832 -0.80715 -2.252953 -3.960494 5.240535 -5.60681 6.155262 7.7e-05 -2.2e-05 6e-06 0.010341 -0.108831 0.017661 0.744076 -3.889939 -10.795015 -0.728272 3.666605 -10.748073 -7.480206 -1.927149 17.721027 -23.200813 24.621897 9.380535 -1.046137 -64.042267 2.655323 9.792862 0.973562 0.421002 -5.882099 9.861276 0.702587 -10.936857 -0.360576 7.156198 3e-06 8.774815 -2e-06 -17.187166 18.101391 5.868285 -1.844029 2.498502 -2.507275 -10.163589 4.678939 4.621104 -20.976002 -5e-06 1e-06 -21.226259 2.451692 -3.593995 0.0 -6e-06 -1e-06 -1.362681 2.240795 -0.746322 -21.334888 0.584908 3.00832 -13.821198 -3e-06 1e-06 -23.887142 -0.24908 -0.839478 -60.930241 2.750372 -0.876264 -0.294023 1.679686 0.833256 -14.218191 0.093213 1.300579 -34.212013 -0.287567 0.967171 -20.033192 0.964535 1.212843 1e-06 1e-06 0.0 -3.440383 0.788234 0.501655 -15.928165 -3.167308 2.999704 -6.338819 -1e-06 2e-06 -18.123426 3.648178 -4.905664 -4e-06 -1e-06 -1e-06 -10.551241 12.577726 11.206223 56.876987 -11.871701 -11.057288 1.951988 74.503357 3.40674 -4.025083 -5.660444 -2.104707 2.243538 -5.255031 -3.180153 14.282874 -0.82659 6.952496 -5e-06 -12.69059 -2e-06 16.166567 -17.001226 2.396949 1.665663 -1.95592 -2.878295 4.727792 -4.17058 4.993917 11.020512 4e-06 0.0 12.109035 -3.73571 -2.866779 -0.0 -1e-06 -0.0 1.291983 -1.928547 -1.498088 14.80011 0.56747 3.865606 14.242555 -1.341732 -6.660649 19.631943 0.143928 -0.648239 49.012997 -0.827872 -6.039326 0.353027 -1.511148 -0.031939 20.222769 3.684309 2.31663 18.787251 8e-06 2e-06 10.751614 -0.479866 1.397905 -1e-06 1e-06 -2e-06 3.273803 0.305947 -0.580111 21.48679 11.830362 2.26613 8.162919 3e-06 2e-06 18.399059 -3.798978 -4.940567 2e-06 0.0 -2e-06 5.17244 10.14603 11.118267 0.130814 0.083231 32.284992 0.649946 19.198704 -20.229212 1.743745 -1.887978 1.186539 0.0 -0.0 2e-06 -2.634382 7.100863 -3.515324 0.476768 0.736578 27.889662 5.391983 -7.5672 -5.7707 -1.535806 0.981767 -0.867362 -0.0 -0.0 -1e-06 
0.0 0.0 0.0 0.0 -0.0 0.0 3.938468 94.511955 88.01162 -3.525897 2.104981 -22.862125 -2.633679 1.126356 -1.5382 -1.107785 0.435617 -5.857549 -4.782403 -0.309845 8.796198 11.122093 -6.705604 22.702618 -1.204186 -2.413189 -4.04937 5.005764 -6.390625 5.152911 7.7e-05 -2.2e-05 6e-06 -0.016979 0.005217 -0.002228 0.721804 -3.772139 -10.758407 -0.760847 3.773572 -10.723843 -9.321843 -0.985924 17.380859 -21.503466 26.858229 7.613362 -2.346426 -63.757118 3.241234 9.317976 0.150106 -1.288507 -5.8821 9.861275 0.70259 -10.936863 -0.360575 7.156199 1e-06 8.774818 1e-06 -16.896349 18.190596 5.970812 -1.844032 2.498503 -2.507275 -10.163589 4.67894 4.621105 -20.976006 -5e-06 2e-06 -21.226267 2.451694 -3.593996 1e-06 -6e-06 -0.0 -1.36268 2.240794 -0.746322 -21.334896 0.584907 3.008323 -13.821202 -2e-06 1e-06 -23.887152 -0.249078 -0.839481 -60.896545 2.900009 -0.804248 -0.294023 1.679688 0.833256 -14.218194 0.093215 1.30058 -34.212013 -0.287564 0.967172 -20.033192 0.964534 1.212843 2e-06 -1e-06 -0.0 -3.440384 0.788233 0.501655 -15.928172 -3.167307 2.999705 -6.338819 -1e-06 2e-06 -18.12343 3.64818 -4.905665 -4e-06 -0.0 -2e-06 -9.389941 11.915002 11.8686 57.400219 -10.53626 -6.56742 0.692128 73.418121 2.314681 -3.994716 -6.27504 -0.271355 2.243541 -5.255036 -3.180155 14.282883 -0.826595 6.952501 -3e-06 -12.6906 2e-06 16.135561 -16.908762 2.371766 1.665665 -1.95592 -2.878298 4.727797 -4.170587 4.993922 11.020522 4e-06 -2e-06 12.10905 -3.735714 -2.866784 -0.0 1e-06 -0.0 1.291985 -1.928551 -1.49809 14.80012 0.567467 3.865605 14.242566 -1.341733 -6.66066 19.631958 0.14393 -0.648245 49.104836 -0.780653 -6.141835 0.353028 -1.511149 -0.031939 20.222784 3.684309 2.316627 18.787266 7e-06 -1e-06 10.751624 -0.479867 1.397904 2e-06 0.0 -0.0 3.273805 0.305946 -0.580109 21.486803 11.830373 2.266126 8.162924 1e-06 -1e-06 18.399075 -3.798982 -4.940576 3e-06 -0.0 -2e-06 4.01351 10.303938 12.095201 0.161957 0.142019 34.886669 -0.197419 19.849638 -23.698589 1.758391 -1.891795 1.618359 0.0 -0.0 2e-06 -4.010893 10.047128 -2.950742 0.450282 0.777837 25.062902 8.069784 -5.786577 -1.632261 -1.495982 1.014907 -0.625531 0.0 0.0 -1e-06 
0.0 0.0 0.0 0.0 -0.0 0.0 4.142295 93.467552 90.033081 -2.976614 1.247957 -23.083065 -2.105837 1.133548 -1.995512 -1.099646 0.931354 -6.068495 -5.125271 0.381342 8.901809 10.464768 -5.465461 20.392593 -1.479155 -2.552598 -4.053361 4.925128 -6.774028 3.845204 7.7e-05 -2.2e-05 6e-06 -0.021912 0.012432 -0.02458 0.713196 -3.75855 -10.753804 -0.762554 3.772046 -10.722775 -11.065949 0.373371 16.731276 -21.117542 28.37966 5.846355 -2.115353 -66.068977 2.508432 9.378731 -1.405251 -2.123646 -5.882102 9.861276 0.702589 -10.936859 -0.360575 7.1562 -1e-06 8.774818 1e-06 -16.717205 18.511219 6.081727 -1.844031 2.498503 -2.507275 -10.163592 4.67894 4.621102 -20.976013 -4e-06 -0.0 -21.226273 2.451692 -3.593996 0.0 -6e-06 -2e-06 -1.36268 2.240795 -0.746322 -21.334898 0.584908 3.008319 -13.821203 -2e-06 2e-06 -23.887152 -0.249079 -0.839486 -61.105122 3.236898 -1.011566 -0.294024 1.679686 0.833255 -14.218197 0.093213 1.300578 -34.212021 -0.287568 0.967166 -20.033201 0.964534 1.212842 1e-06 -0.0 0.0 -3.440385 0.788233 0.501655 -15.928176 -3.167308 2.999704 -6.338821 -1e-06 1e-06 -18.123432 3.648179 -4.905668 -6e-06 -0.0 -3e-06 -7.632871 11.539413 12.626934 57.737869 -7.97767 -2.439608 -1.013096 71.479782 1.002405 -4.206144 -6.214995 0.640148 2.243539 -5.255033 -3.180153 14.282871 -0.826595 6.952494 -1e-06 -12.69059 -1e-06 16.271912 -16.883678 2.278629 1.665664 -1.95592 -2.878294 4.727793 -4.170585 4.993918 11.020514 1e-06 -3e-06 12.109038 -3.735714 -2.866783 -2e-06 -0.0 -1e-06 1.291983 -1.928546 -1.498086 14.800108 0.567466 3.865601 14.242557 -1.341736 -6.660652 19.631943 0.143925 -0.648247 49.285355 -0.700786 -6.332822 0.353029 -1.511149 -0.031939 20.222765 3.684304 2.316625 18.787249 4e-06 -3e-06 10.751616 -0.479868 1.397903 -1e-06 -1e-06 0.0 3.273803 0.305947 -0.580111 21.48678 11.830359 2.266127 8.162918 0.0 -0.0 18.399057 -3.798982 -4.940572 3e-06 -0.0 0.0 3.649383 10.726726 12.675369 0.213941 0.202983 37.542805 -0.894582 20.343866 -26.338684 1.784439 -1.910496 1.855712 0.0 -0.0 2e-06 -4.737626 10.319507 -3.573831 0.411427 0.64436 26.970751 9.899175 -3.897802 -0.709132 -1.481844 1.049769 0.071785 0.0 0.0 -1e-06 
0.0 0.0 0.0 0.0 -0.0 0.0 4.488099 92.813423 91.596313 -3.652911 0.514595 -23.043379 -1.285 1.088243 -2.208452 -0.797372 1.26919 -6.148068 -4.490144 0.273964 8.780433 8.985304 -3.971972 18.229794 -1.648472 -2.426757 -4.021203 4.756587 -6.95062 2.104947 7.7e-05 -2.3e-05 6e-06 -0.010522 0.048987 -0.026346 0.716652 -3.718712 -10.77105 -0.743409 3.804061 -10.752578 -11.702908 1.18453 16.083391 -24.314667 29.167141 2.633116 -1.346023 -69.345406 1.724685 9.358519 -2.605818 -1.915458 -5.882102 9.861281 0.70259 -10.936868 -0.360578 7.156204 -1e-06 8.774825 -2e-06 -16.819345 18.63175 6.123142 -1.844031 2.498501 -2.507275 -10.163594 4.678941 4.621108 -20.976013 -5e-06 5e-06 -21.226274 2.451696 -3.593995 0.0 -7e-06 -0.0 -1.362682 2.240798 -0.746322 -21.334906 0.584909 3.008324 -13.82121 0.0 3e-06 -23.887159 -0.249078 -0.839481 -61.275562 3.233449 -0.908934 -0.294026 1.679686 0.833255 -14.218201 0.093216 1.300582 -34.21204 -0.28756 0.967173 -20.033205 0.964537 1.212842 0.0 0.0 0.0 -3.440387 0.788231 0.501655 -15.928183 -3.167308 2.999708 -6.338825 0.0 1e-06 -18.123442 3.64818 -4.905667 -4e-06 3e-06 -3e-06 -6.674284 11.718859 12.56098 58.972843 -5.227249 1.752078 -3.426512 67.857956 -1.274581 -4.592934 -5.49143 1.128827 2.243542 -5.255037 -3.180156 14.282887 -0.826599 6.952499 2e-06 -12.690603 0.0 16.111734 -17.140352 2.342717 1.665667 -1.955922 -2.878299 4.727798 -4.170588 4.993924 11.020523 0.0 -1e-06 12.10905 -3.735717 -2.866785 1e-06 0.0 -2e-06 1.291985 -1.928549 -1.498088 14.800123 0.567464 3.865604 14.242569 -1.34174 -6.66066 19.631962 0.143921 -0.648249 49.484299 -0.645719 -6.600621 0.353029 -1.511149 -0.03194 20.222786 3.684305 2.316627 18.78727 -0.0 -4e-06 10.751625 -0.479869 1.3979 0.0 0.0 1e-06 3.273806 0.305947 -0.580112 21.486807 11.830368 2.266127 8.162926 -1e-06 -1e-06 18.39908 -3.798988 -4.940581 3e-06 -0.0 0.0 4.540493 11.007679 12.950234 0.242976 0.099969 39.549892 -1.29043 20.374704 -27.94519 1.785507 -1.969481 1.788602 0.0 -0.0 2e-06 -4.510911 8.369181 -4.857039 0.436778 0.51445 30.974573 10.683759 -1.537201 -2.095044 -1.470403 1.032748 0.444583 0.0 0.0 -1e-06 
